<?xml version="1.0" encoding="utf-8"?>
<svg xmlns="http://www.w3.org/2000/svg"
	xmlns:xlink="http://www.w3.org/1999/xlink"
	width="25px" height="25px" viewBox="0 0 25 25">
<style type="text/css"><![CDATA[
.style0 {
  font-size: 10px;
  font-family: "Raleway-Light";
  fill: rgb(255,255,255);
}
]]></style>
<path fillRule="evenodd" d="M 12.5 24C 18.84 24 24 18.84 24 12.5 24 6.16 18.84 1 12.5 1 6.16 1 1 6.16 1 12.5 1 18.84 6.16 24 12.5 24M 12.5 25C 5.6 25-0 19.4-0 12.5-0 5.6 5.6-0 12.5-0 19.4-0 25 5.6 25 12.5 25 19.4 19.4 25 12.5 25 12.5 25 12.5 25 12.5 25Z" fill="rgb(168,168,168)"/><text transform="translate(5.67,9.00)" class="style0"><tspan y="7.10" x="0.00 6.13" fill="rgb(255,255,255)">Ru</tspan></text></svg>