<svg xmlns="http://www.w3.org/2000/svg" viewBox="0 0 121.48 85.04"><defs><style>.cls-1{fill:#fff;}</style></defs><title>Ресурс 2</title><g id="Слой_2" data-name="Слой 2"><g id="Layer_1" data-name="Layer 1"><path class="cls-1" d="M118.95,13.28A15.22,15.22,0,0,0,108.21,2.54C98.73,0,60.74,0,60.74,0s-38,0-47.46,2.54A15.22,15.22,0,0,0,2.54,13.28C0,22.75,0,42.52,0,42.52S0,62.29,2.54,71.76A15.22,15.22,0,0,0,13.28,82.5C22.75,85,60.74,85,60.74,85s38,0,47.46-2.54a15.22,15.22,0,0,0,10.74-10.74c2.54-9.47,2.54-29.24,2.54-29.24S121.48,22.75,118.95,13.28ZM48.59,60.74V24.3L80.16,42.52Z"/></g></g></svg>