<?xml version="1.0" encoding="utf-8"?>
<!-- Generator: Adobe Illustrator 21.1.0, SVG Export Plug-In . SVG Version: 6.00 Build 0)  -->
<svg version="1.1" id="Layer_1" xmlns="http://www.w3.org/2000/svg" xmlns:xlink="http://www.w3.org/1999/xlink" x="0px" y="0px"
	 viewBox="0 0 45.8 45.9" style="enable-background:new 0 0 45.8 45.9;" xml:space="preserve">
<title>inst1</title>
<g id="Layer_2">
	<path d="M22.9,15.7c-4,0-7.2,3.2-7.2,7.2s3.2,7.2,7.2,7.2s7.2-3.2,7.2-7.2S26.9,15.7,22.9,15.7z"/>
	<path d="M31.5,0H14.3C6.4,0,0,6.4,0,14.3v17.2c0,7.9,6.4,14.3,14.3,14.3h17.2c7.9,0,14.3-6.4,14.3-14.3V14.3
		C45.8,6.4,39.4,0,31.5,0z M22.9,34.5c-6.4,0-11.5-5.2-11.5-11.5c0-6.4,5.2-11.5,11.5-11.5c6.4,0,11.5,5.1,11.5,11.5
		C34.4,29.4,29.2,34.5,22.9,34.5z M36.7,10.7c0,0.8-0.7,1.5-1.5,1.5c-0.8-0.1-1.5-0.8-1.5-1.6c0.1-0.8,0.8-1.5,1.6-1.5
		S36.8,9.7,36.7,10.7z"/>
</g>
</svg>
